Coordinates
version=1
nRows=20
nColumns=63
inDegrees=yes

Units are S.I. units (second, meters, Newtons, ...)
If the header above contains a line with 'inDegrees', this indicates whether rotational values are in degrees (yes) or radians (no).

endheader
time	pelvis_tilt	pelvis_list	pelvis_rotation	pelvis_tx	pelvis_ty	pelvis_tz	hip_flexion_r	hip_adduction_r	hip_rotation_r	knee_angle_r	knee_angle_r_beta	ankle_angle_r	subtalar_angle_r	mtp_angle_r	hip_flexion_l	hip_adduction_l	hip_rotation_l	knee_angle_l	knee_angle_l_beta	ankle_angle_l	subtalar_angle_l	mtp_angle_l	L5_S1_Flex_Ext	L5_S1_Lat_Bending	L5_S1_axial_rotation	L4_L5_Flex_Ext	L4_L5_Lat_Bending	L4_L5_axial_rotation	L3_L4_Flex_Ext	L3_L4_Lat_Bending	L3_L4_axial_rotation	L2_L3_Flex_Ext	L2_L3_Lat_Bending	L2_L3_axial_rotation	L1_L2_Flex_Ext	L1_L2_Lat_Bending	L1_L2_axial_rotation	L1_T12_Flex_Ext	L1_T12_Lat_Bending	L1_T12_axial_rotation	Abs_r3	Abs_r2	Abs_r1	Abs_t1	Abs_t2	neck_flexion	neck_bending	neck_rotation	arm_flex_r	arm_add_r	arm_rot_r	elbow_flex_r	pro_sup_r	wrist_flex_r	wrist_dev_r	arm_flex_l	arm_add_l	arm_rot_l	elbow_flex_l	pro_sup_l	wrist_flex_l	wrist_dev_l
3.135593	1.612958	-7.985684	91.155549	0.167720	0.956588	0.306925	-3.051992	-0.761184	5.981649	1.740736	0.030382	19.609566	-2.831791	0.000000	-2.184876	-2.418314	-10.081035	1.435293	0.025051	21.510168	14.501634	0.000000	0.286534	0.122327	0.935213	0.532122	0.162695	0.993664	0.470746	0.297426	0.993664	0.327479	0.297426	0.818311	0.266075	0.249449	0.759861	0.163725	0.189485	0.701410	2.046681	1.383789	5.201375	0.000000	0.000000	24.952859	-5.653156	-18.027835	10.489878	-9.070665	67.773613	39.486275	78.302184	-8.169630	-3.232240	17.143218	-7.344251	69.416593	41.819356	69.229667	10.130204	14.509833
3.152542	1.610983	-7.890654	91.060326	0.167719	0.956574	0.306366	-3.224828	-0.754874	6.603498	1.678233	0.029291	19.486637	-3.614062	0.000000	-2.382247	-2.412023	-10.062572	1.353969	0.023631	21.405869	14.394820	0.000000	0.284650	0.126723	0.940372	0.528624	0.168542	0.999145	0.467652	0.308115	0.999145	0.325327	0.308115	0.822825	0.264326	0.258414	0.764052	0.162649	0.196294	0.705279	2.033227	1.433517	5.230067	0.000000	0.000000	24.815037	-5.624367	-17.835844	10.475648	-9.058890	67.937480	39.490998	78.606387	-8.334728	-3.173782	17.034651	-7.293864	69.132322	41.767342	68.615839	10.339766	14.988877
3.169492	1.617072	-7.828058	90.995448	0.167654	0.956510	0.305920	-3.341817	-0.744688	7.020727	1.635507	0.028545	19.439603	-4.096254	0.000000	-2.529811	-2.409578	-9.873042	1.301260	0.022711	21.245625	14.048221	0.000000	0.285755	0.133747	0.933296	0.530676	0.177884	0.991627	0.469467	0.325193	0.991627	0.326589	0.325193	0.816634	0.265352	0.272738	0.758303	0.163280	0.207175	0.699972	2.041119	1.512977	5.190714	0.000000	0.000000	24.730707	-5.547134	-17.483785	10.484941	-9.056596	68.169013	39.486773	78.618343	-8.498888	-3.165804	16.920531	-7.243242	68.813053	41.739247	68.171216	10.542891	15.495971
3.186441	1.629765	-7.792345	90.961765	0.167525	0.956417	0.305568	-3.412771	-0.730781	7.314459	1.607833	0.028062	19.430173	-4.410112	0.000000	-2.633827	-2.410188	-9.607607	1.271513	0.022192	21.061427	13.607203	0.000000	0.288407	0.143181	0.912451	0.535601	0.190431	0.969479	0.473824	0.348131	0.969479	0.329621	0.348131	0.798395	0.267815	0.291975	0.741367	0.164796	0.221788	0.684338	2.060065	1.619696	5.074779	0.000000	0.000000	24.705469	-5.431545	-16.985559	10.514960	-9.067730	68.425668	39.491764	78.469473	-8.603407	-3.158645	16.756123	-7.191880	68.328509	41.738690	68.120109	10.802902	15.959003
3.203390	1.650481	-7.779467	90.975565	0.167320	0.956320	0.305312	-3.444634	-0.712469	7.429753	1.594873	0.027836	19.447338	-4.514694	0.000000	-2.686213	-2.418406	-9.305088	1.277584	0.022298	20.883345	13.155228	0.000000	0.291350	0.154854	0.875424	0.541067	0.205956	0.930138	0.478659	0.376512	0.930138	0.332984	0.376512	0.765996	0.270548	0.315779	0.711282	0.166478	0.239869	0.656568	2.081086	1.751741	4.868847	0.000000	0.000000	24.753997	-5.257177	-16.330084	10.561343	-9.091009	68.684205	39.510017	78.157399	-8.622911	-3.132774	16.553157	-7.143427	67.743316	41.762010	68.290008	11.023399	16.350202
3.220339	1.667115	-7.793191	90.984449	0.167115	0.956230	0.305102	-3.429376	-0.702576	7.429896	1.603375	0.027984	19.491985	-4.425813	0.000000	-2.706488	-2.419200	-9.031628	1.282757	0.022388	20.704864	12.726510	0.000000	0.295338	0.165967	0.832963	0.548472	0.220736	0.885023	0.485211	0.403533	0.885023	0.337542	0.403533	0.728842	0.274251	0.338440	0.676782	0.168756	0.257083	0.624722	2.109569	1.877455	4.632688	0.000000	0.000000	24.850126	-5.081748	-15.698062	10.642925	-9.116965	69.007767	39.519906	77.792386	-8.543214	-3.127223	16.301080	-7.113386	67.044986	41.817075	68.671286	11.222313	16.661597
3.237288	1.680197	-7.826355	91.027741	0.166891	0.956160	0.304905	-3.395898	-0.692752	7.387503	1.601275	0.027948	19.514326	-4.306111	0.000000	-2.693659	-2.418301	-8.759435	1.293668	0.022579	20.542932	12.351635	0.000000	0.299826	0.175795	0.780670	0.556807	0.233807	0.829462	0.492584	0.427427	0.829462	0.342671	0.427427	0.683087	0.278418	0.358481	0.634295	0.171321	0.272306	0.585503	2.141627	1.988625	4.341855	0.000000	0.000000	24.984796	-4.894043	-15.095829	10.740763	-9.136148	69.312088	39.526678	77.579027	-8.356154	-3.074647	16.021015	-7.108231	66.299751	41.894349	69.123182	11.395056	16.897249
3.254237	1.695888	-7.870634	91.081196	0.166675	0.956118	0.304700	-3.353883	-0.677581	7.374265	1.587079	0.027700	19.493174	-4.225209	0.000000	-2.663085	-2.420544	-8.527788	1.304718	0.022772	20.407168	12.049966	0.000000	0.304066	0.185016	0.723675	0.564680	0.246071	0.768905	0.499549	0.449847	0.768905	0.347516	0.449847	0.633216	0.282355	0.377284	0.587986	0.173743	0.286589	0.542756	2.171910	2.092935	4.024865	0.000000	0.000000	25.147152	-4.708725	-14.548331	10.845419	-9.153751	69.523894	39.549540	77.655951	-7.987653	-2.899611	15.697770	-7.107806	65.427671	41.973760	69.714075	11.616765	17.062126
3.271186	1.708357	-7.923700	91.150625	0.166465	0.956100	0.304504	-3.301258	-0.665927	7.245694	1.574923	0.027488	19.476237	-3.990919	0.000000	-2.616373	-2.421332	-8.321607	1.313329	0.022922	20.292333	11.817497	0.000000	0.307865	0.192239	0.662514	0.571735	0.255679	0.703921	0.505791	0.467411	0.703921	0.351859	0.467411	0.579700	0.285883	0.392015	0.538293	0.175914	0.297779	0.496885	2.199047	2.174652	3.684704	0.000000	0.000000	25.322870	-4.528687	-14.110654	10.975383	-9.166339	69.719286	39.571118	77.913447	-7.534643	-2.696441	15.361023	-7.118892	64.487229	42.055384	70.331541	11.891780	17.232947
3.288136	1.717901	-7.980574	91.238301	0.166276	0.956101	0.304328	-3.248647	-0.654384	7.098099	1.555258	0.027144	19.437593	-3.755394	0.000000	-2.557477	-2.422404	-8.121435	1.319401	0.023028	20.194413	11.631811	0.000000	0.310980	0.197070	0.602944	0.577522	0.262103	0.640628	0.510910	0.479156	0.640628	0.355419	0.479156	0.527576	0.288776	0.401865	0.489892	0.177694	0.305261	0.452208	2.221302	2.229293	3.353394	0.000000	0.000000	25.501930	-4.364235	-13.813896	11.124450	-9.171726	69.891080	39.568423	78.303140	-7.057611	-2.540306	15.065693	-7.139434	63.627688	42.122609	70.808311	12.203446	17.406601
3.305085	1.730279	-8.039752	91.337677	0.166099	0.956109	0.304189	-3.194072	-0.638490	6.919002	1.535032	0.026791	19.391897	-3.499646	0.000000	-2.487174	-2.428452	-7.957817	1.322986	0.023090	20.126042	11.522133	0.000000	0.313339	0.200710	0.549004	0.581902	0.266944	0.583317	0.514784	0.488006	0.583317	0.358115	0.488006	0.480379	0.290966	0.409288	0.446066	0.179042	0.310900	0.411753	2.238148	2.270471	3.053396	0.000000	0.000000	25.680516	-4.229073	-13.643879	11.263162	-9.179836	69.944476	39.567309	78.833225	-6.577996	-2.381113	14.809085	-7.153387	62.827941	42.162367	71.265949	12.577137	17.531101
3.322034	1.746360	-8.097544	91.448953	0.165938	0.956122	0.304102	-3.147599	-0.616144	6.840872	1.503026	0.026233	19.311703	-3.419822	0.000000	-2.405118	-2.443398	-7.884040	1.329974	0.023212	20.101119	11.567296	0.000000	0.314496	0.203482	0.503897	0.584050	0.270631	0.535390	0.516685	0.494745	0.535390	0.359437	0.494745	0.440909	0.292041	0.414940	0.409416	0.179703	0.315193	0.377922	2.246413	2.301824	2.802521	0.000000	0.000000	25.853699	-4.124491	-13.583121	11.357247	-9.192108	69.794805	39.580172	79.428950	-6.141971	-2.220543	14.605898	-7.157331	62.137557	42.172760	71.733069	12.963791	17.579768
3.338983	1.766205	-8.149871	91.591555	0.165780	0.956150	0.304100	-3.097936	-0.591427	6.555037	1.497900	0.026143	19.303739	-3.118418	0.000000	-2.311564	-2.465847	-7.810500	1.333701	0.023277	20.111573	11.668846	0.000000	0.313686	0.205141	0.468806	0.582546	0.272837	0.498107	0.515354	0.498780	0.498107	0.358512	0.498780	0.410206	0.291289	0.418323	0.380905	0.179240	0.317763	0.351605	2.240627	2.320595	2.607360	0.000000	0.000000	26.013978	-4.068051	-13.661018	11.411146	-9.208646	69.524787	39.590937	79.720004	-5.847431	-2.165120	14.499421	-7.156767	61.696778	42.157365	72.061808	13.286507	17.541811
3.355932	1.787957	-8.195774	91.747219	0.165643	0.956193	0.304174	-3.055720	-0.563877	6.307568	1.498476	0.026153	19.298239	-2.928979	0.000000	-2.208800	-2.494181	-7.795675	1.338272	0.023357	20.165930	11.886698	0.000000	0.311285	0.206135	0.445577	0.578087	0.274160	0.473425	0.511410	0.501197	0.473425	0.355768	0.501197	0.389880	0.289059	0.420351	0.362031	0.177868	0.319303	0.334183	2.223477	2.331842	2.478165	0.000000	0.000000	26.159696	-4.062054	-13.833472	11.413330	-9.235829	69.127713	39.625867	79.759727	-5.750365	-2.170415	14.455972	-7.154294	61.443348	42.124544	72.369246	13.506945	17.334159
3.372881	1.811338	-8.232876	91.926280	0.165516	0.956256	0.304342	-3.010132	-0.537624	5.853832	1.533720	0.026768	19.387146	-2.508754	0.000000	-2.097020	-2.528528	-7.792056	1.344812	0.023471	20.248022	12.163077	0.000000	0.306860	0.206051	0.431210	0.569869	0.274048	0.458161	0.504139	0.500993	0.458161	0.350710	0.500993	0.377309	0.284950	0.420180	0.350358	0.175340	0.319174	0.323408	2.191867	2.330895	2.398263	0.000000	0.000000	26.286941	-4.105610	-14.113230	11.391005	-9.273708	68.694108	39.678033	79.613329	-5.875864	-2.247474	14.481126	-7.156772	61.404636	42.088360	72.517668	13.577332	17.009790
3.389831	1.837414	-8.261291	92.106267	0.165408	0.956321	0.304571	-2.972675	-0.509073	5.458349	1.574620	0.027482	19.488153	-2.197390	0.000000	-1.983798	-2.569121	-7.875438	1.356439	0.023674	20.363841	12.568888	0.000000	0.301354	0.205991	0.427461	0.559645	0.273968	0.454177	0.495095	0.500846	0.454177	0.344418	0.500846	0.374028	0.279838	0.420057	0.347312	0.172194	0.319080	0.320596	2.152544	2.330210	2.377408	0.000000	0.000000	26.396105	-4.197509	-14.425343	11.308040	-9.325750	68.113926	39.773852	79.607620	-6.146755	-2.283655	14.531471	-7.150130	61.467166	42.050619	72.606384	13.512658	16.622036
3.406780	1.870797	-8.278403	92.308982	0.165300	0.956382	0.304869	-2.943565	-0.474438	4.890886	1.626928	0.028395	19.657954	-1.679018	0.000000	-1.874453	-2.620628	-7.899280	1.370287	0.023916	20.485447	12.931666	0.000000	0.295156	0.206265	0.426990	0.548134	0.274332	0.453677	0.484912	0.501513	0.453677	0.337334	0.501513	0.373617	0.274082	0.420616	0.346930	0.168652	0.319504	0.320243	2.108270	2.333311	2.374793	0.000000	0.000000	26.475577	-4.331322	-14.769052	11.234617	-9.390187	67.618395	39.880600	79.690868	-6.539583	-2.295921	14.642560	-7.144884	61.746350	42.015030	72.343096	13.299846	16.284258
3.423729	1.906371	-8.283441	92.504000	0.165208	0.956424	0.305205	-2.928322	-0.439429	4.322601	1.676164	0.029255	19.853409	-1.139943	0.000000	-1.779969	-2.676390	-7.943308	1.391267	0.024282	20.608624	13.310204	0.000000	0.288812	0.206644	0.431854	0.536354	0.274836	0.458845	0.474490	0.502434	0.458845	0.330084	0.502434	0.377873	0.268191	0.421388	0.350882	0.165027	0.320091	0.323891	2.062959	2.337597	2.401845	0.000000	0.000000	26.530291	-4.481243	-15.112442	11.162195	-9.463508	67.191646	39.989011	79.908678	-6.930143	-2.272151	14.796009	-7.125986	62.172268	41.949171	71.864557	13.061807	15.991153
3.440678	1.948108	-8.279422	92.698001	0.165116	0.956431	0.305543	-2.934647	-0.395689	3.878676	1.701708	0.029700	20.016558	-0.765176	0.000000	-1.703417	-2.738528	-7.874013	1.415615	0.024707	20.696511	13.521232	0.000000	0.283880	0.208307	0.433445	0.527193	0.277048	0.460535	0.466386	0.506478	0.460535	0.324446	0.506478	0.379264	0.263611	0.424780	0.352174	0.162209	0.322668	0.325084	2.027723	2.356411	2.410690	0.000000	0.000000	26.562009	-4.624657	-15.357679	11.125999	-9.533541	66.924166	40.078574	80.512028	-7.303675	-2.188321	14.946671	-7.090483	62.637557	41.873839	71.000447	12.785243	16.008724
3.457627	1.994153	-8.257163	92.876150	0.165013	0.956406	0.305844	-2.969847	-0.349230	3.480521	1.712733	0.029893	20.179587	-0.401023	0.000000	-1.660099	-2.805072	-7.805781	1.447155	0.025258	20.759568	13.697165	0.000000	0.279398	0.211580	0.437875	0.518870	0.281402	0.465242	0.459023	0.514436	0.465242	0.319324	0.514436	0.383140	0.259449	0.431455	0.355773	0.159648	0.327738	0.328406	1.995711	2.393439	2.435327	0.000000	0.000000	26.578296	-4.748981	-15.492420	11.097260	-9.608302	66.720935	40.154039	81.244584	-7.549511	-2.012641	15.155847	-7.026425	63.312123	41.746493	69.902049	12.508645	16.145030
